<svg width="195" height="128" viewBox="0 0 195 128" fill="none" xmlns="http://www.w3.org/2000/svg">
<path d="M1 1.80275C1 1.80275 8.80448 -0.00344039 13.1472 1.80275C15.928 2.95928 19.2209 6.4002 19.2209 6.4002L24.0798 13.2964V92.6023C24.0798 92.6023 28.9828 102.646 35.0123 102.947C41.3856 103.264 47.1595 92.6023 47.1595 92.6023V67.3163C47.1595 67.3163 48.5944 62.5873 50.8037 60.4202C52.7241 58.5365 56.8773 56.9721 56.8773 56.9721H71.454V28.2381C71.454 28.2381 75.134 17.3792 81.1718 16.7444C87.8395 16.0435 93.3191 28.2381 93.3191 28.2381V60.4202C93.3191 60.4202 101.55 67.7782 107.896 67.3163C113.412 66.9149 120.043 60.4202 120.043 60.4202V21.3419C120.043 21.3419 125.482 9.84828 132.19 9.84828C138.899 9.84828 144.337 21.3419 144.337 21.3419V67.3163C144.337 67.3163 147.08 69.7504 149.196 70.7644C154.698 73.401 159.619 67.8932 164.988 70.7644C167.908 72.3261 169.223 73.8564 171.061 76.5112C176.001 83.6447 165.874 91.3747 171.061 98.3491C172.606 100.426 173.927 101.247 175.92 102.947C175.92 102.947 179.213 106.387 181.994 107.544C186.337 109.35 194.141 107.544 194.141 107.544" stroke="#7443CB" stroke-width="1.5"/>
<path d="M13.1472 1.80275C8.80448 -0.00344038 1 1.80275 1 1.80275V127.083H194.141V107.544C194.141 107.544 186.337 109.35 181.994 107.544C179.213 106.387 175.92 102.947 175.92 102.947C173.927 101.247 172.606 100.426 171.061 98.3491C165.874 91.3747 176.001 83.6447 171.061 76.5112C169.223 73.8564 167.908 72.3261 164.988 70.7644C159.619 67.8932 154.698 73.401 149.196 70.7644C147.08 69.7504 144.337 67.3163 144.337 67.3163V21.3419C144.337 21.3419 138.899 9.84828 132.19 9.84828C125.482 9.84828 120.043 21.3419 120.043 21.3419V60.4202C120.043 60.4202 113.412 66.9149 107.896 67.3163C101.55 67.7782 93.3191 60.4202 93.3191 60.4202V28.2381C93.3191 28.2381 87.8395 16.0435 81.1718 16.7444C75.134 17.3792 71.454 28.2381 71.454 28.2381V56.9721H56.8773C56.8773 56.9721 52.7241 58.5365 50.8037 60.4202C48.5944 62.5873 47.1595 67.3163 47.1595 67.3163V92.6023C47.1595 92.6023 41.3856 103.264 35.0123 102.947C28.9828 102.646 24.0798 92.6023 24.0798 92.6023V13.2964L19.2209 6.4002C19.2209 6.4002 15.928 2.95928 13.1472 1.80275Z" fill="url(#paint0_linear_114_178)"/>
<defs>
<linearGradient id="paint0_linear_114_178" x1="97.5706" y1="1" x2="97.5706" y2="127.083" gradientUnits="userSpaceOnUse">
<stop stop-color="#7443CB"/>
<stop offset="1" stop-color="#7443CB" stop-opacity="0"/>
</linearGradient>
</defs>
</svg>
